<svg xmlns="http://www.w3.org/2000/svg" viewBox="0 0 400 240" role="img" aria-label="Sweep many positions into one">
  <rect width="400" height="240" fill="#0B0B0E"/>
  <g>
    <rect x="28" y="48" width="150" height="24" rx="12" fill="#26262B"/>
    <rect x="28" y="48" width="52" height="24" rx="12" fill="#FACC15" opacity="0.85"/>
    <rect x="28" y="96" width="112" height="24" rx="12" fill="#26262B"/>
    <rect x="28" y="96" width="38" height="24" rx="12" fill="#FACC15" opacity="0.6"/>
    <rect x="28" y="144" width="74" height="24" rx="12" fill="#26262B"/>
    <rect x="28" y="144" width="24" height="24" rx="12" fill="#FACC15" opacity="0.4"/>
    <rect x="28" y="188" width="128" height="14" rx="7" fill="#1A1A1F"/>
  </g>
  <line x1="196" y1="108" x2="238" y2="108" stroke="#71717A" stroke-width="3"/>
  <path d="M230,98 L244,108 L230,118 Z" fill="#71717A"/>
  <rect x="250" y="88" width="122" height="40" rx="20" fill="#FACC15"/>
  <rect x="264" y="102" width="60" height="12" rx="6" fill="#08080A" opacity="0.65"/>
  <circle cx="250" cy="108" r="5" fill="#0B0B0E" stroke="#FACC15" stroke-width="3"/>
</svg>
